<svg id="svg" version="1.1" width="1024" height="1024" xmlns="http://www.w3.org/2000/svg"><path d="M457.947 120.021 C 400.579 130.132,356.297 169.980,336.595 229.223 C 331.345 245.007,328.935 255.800,325.456 279.105 C 322.434 299.343,321.296 304.614,315.871 323.500 C 308.727 348.367,299.020 370.205,276.862 411.256 C 265.978 431.420,251.903 459.964,245.136 475.598 C 230.110 510.309,222.240 534.483,214.075 571.000 C 207.625 599.848,199.674 631.631,195.311 646.000 C 191.467 658.659,182.623 680.141,176.453 691.803 C 166.860 709.936,160.487 718.487,143.814 735.596 C 134.901 744.742,133.000 747.224,133.000 749.712 C 133.000 754.466,136.219 757.431,147.759 763.307 C 173.477 776.401,199.097 782.881,244.000 787.651 C 256.981 789.030,275.767 789.367,359.602 789.724 C 474.577 790.214,467.000 790.758,467.000 782.011 C 467.000 770.962,458.187 761.644,443.500 757.163 C 439.315 755.886,427.420 755.545,370.500 755.069 L 302.500 754.500 313.011 752.268 C 358.117 742.692,407.907 715.573,442.849 681.550 C 463.291 661.647,477.388 642.325,489.581 617.500 C 512.497 570.843,517.848 519.973,505.355 467.542 C 499.890 444.602,492.275 425.207,472.751 384.500 C 454.584 346.623,448.577 330.071,445.516 309.456 C 442.846 291.474,442.581 281.650,444.425 269.142 C 450.639 227.014,474.526 197.652,510.554 187.858 C 522.307 184.663,543.231 184.655,555.000 187.840 C 580.166 194.650,598.815 210.391,610.002 234.263 C 615.437 245.861,617.987 257.118,617.983 269.500 C 617.979 284.002,615.825 288.199,602.679 299.314 C 595.589 305.309,593.617 308.906,594.265 314.659 C 594.908 320.360,598.174 324.464,607.711 331.556 C 611.995 334.741,615.696 337.502,615.935 337.692 C 616.175 337.882,614.517 343.783,612.252 350.806 C 606.977 367.159,605.629 375.111,606.219 386.398 C 606.630 394.247,607.599 398.184,613.259 415.000 C 622.918 443.699,626.780 459.245,630.152 483.000 C 632.228 497.627,631.947 544.448,629.700 558.500 C 617.047 637.601,584.034 689.966,520.051 732.422 C 513.946 736.474,502.211 743.235,493.975 747.447 C 485.290 751.889,479.000 755.703,479.000 756.527 C 479.000 758.421,488.647 769.451,499.748 780.250 L 508.742 789.000 564.246 789.000 C 594.773 789.000,621.125 788.725,622.806 788.389 C 628.203 787.309,630.000 784.696,630.000 777.929 C 630.000 766.790,624.777 758.971,613.683 753.502 C 608.667 751.029,601.673 748.913,590.500 746.488 C 571.444 742.351,566.983 741.156,567.051 740.210 C 567.080 739.819,570.261 737.025,574.121 734.000 C 590.350 721.282,614.397 693.381,626.717 672.973 C 652.287 630.619,666.042 582.774,667.679 530.500 C 668.824 493.906,664.483 464.418,651.925 423.500 C 639.000 381.387,638.894 377.440,649.921 348.743 C 652.401 342.288,654.743 333.812,655.777 327.552 L 657.500 317.119 683.056 300.195 C 708.041 283.649,715.258 277.663,716.208 272.694 C 716.962 268.747,715.075 264.300,711.135 260.741 C 706.921 256.933,687.092 248.720,663.500 241.010 C 656.350 238.673,650.013 236.252,649.418 235.630 C 648.822 235.009,647.118 230.706,645.631 226.068 C 640.209 209.168,630.246 190.880,618.496 176.258 C 595.479 147.618,554.677 125.983,511.611 119.585 C 496.862 117.394,471.693 117.599,457.947 120.021 M534.444 245.832 C 525.183 250.162,519.294 261.618,520.245 273.457 C 520.838 280.848,523.536 286.445,528.797 291.198 C 533.825 295.741,538.720 297.333,546.029 296.804 C 553.667 296.252,560.377 292.178,564.420 285.639 C 566.981 281.496,567.448 279.634,567.795 272.166 C 568.179 263.905,568.041 263.198,564.836 257.035 C 560.327 248.361,554.662 244.686,545.119 244.244 C 540.217 244.016,537.448 244.428,534.444 245.832 M822.207 300.584 C 808.430 307.449,798.038 328.901,797.663 351.245 C 797.573 356.605,797.239 360.993,796.919 360.995 C 796.599 360.998,795.709 359.825,794.941 358.389 C 791.953 352.807,778.102 341.148,769.253 336.765 C 760.752 332.555,760.503 332.500,750.070 332.505 C 741.121 332.509,738.872 332.845,735.405 334.696 C 723.004 341.317,719.766 354.633,727.039 369.106 C 731.347 377.679,742.895 388.942,754.204 395.602 L 762.868 400.703 755.689 401.986 C 739.697 404.844,727.480 410.497,718.959 418.982 C 712.440 425.473,709.811 430.533,709.197 437.767 C 707.846 453.680,719.419 465.037,736.932 464.983 C 748.357 464.947,761.292 461.007,774.250 453.615 C 778.513 451.184,782.000 449.325,782.000 449.485 C 782.000 449.645,780.667 452.638,779.039 456.138 C 774.789 465.267,772.946 473.068,772.292 484.695 C 771.370 501.081,774.346 511.776,781.788 518.823 L 785.298 522.146 783.595 539.323 C 782.658 548.770,780.994 562.800,779.898 570.500 C 777.913 584.436,768.338 633.996,767.460 634.873 C 767.207 635.126,766.992 632.446,766.983 628.917 C 766.888 594.036,754.722 564.188,733.464 546.688 C 721.836 537.114,701.279 526.321,699.005 528.595 C 697.150 530.450,694.000 553.027,694.000 564.468 C 694.000 602.964,712.150 639.935,744.152 666.627 L 752.270 673.398 751.674 681.949 C 751.344 686.683,748.815 700.096,746.007 712.000 C 740.527 735.238,732.857 769.713,730.944 779.710 C 729.107 789.310,729.065 789.277,742.480 788.851 C 750.944 788.583,754.327 788.097,755.418 786.994 C 756.296 786.106,757.947 779.216,759.490 770.000 C 764.130 742.299,769.927 721.945,777.349 707.298 C 778.760 704.513,783.116 697.448,787.027 691.599 C 795.046 679.606,794.204 680.199,817.000 670.498 C 843.578 659.188,856.182 651.433,871.198 637.146 C 889.602 619.637,900.853 600.586,907.012 576.500 L 909.825 565.500 906.163 564.839 C 900.474 563.811,882.382 565.715,871.420 568.493 C 852.096 573.391,830.653 586.064,817.010 600.649 C 809.172 609.027,800.109 622.712,794.591 634.500 C 787.707 649.206,786.872 650.795,787.499 648.000 C 795.516 612.253,802.535 569.164,806.006 534.398 L 807.114 523.296 812.922 517.323 C 819.221 510.846,823.866 502.280,826.381 492.500 C 828.629 483.762,830.113 468.883,829.398 462.254 L 828.777 456.500 831.980 461.500 C 839.019 472.492,853.121 484.610,864.170 489.163 C 871.935 492.362,884.708 492.356,891.251 489.149 C 904.179 482.813,907.313 468.237,899.241 452.000 C 895.628 444.733,882.328 431.450,874.526 427.316 C 869.181 424.483,868.813 424.096,871.026 423.632 C 881.439 421.453,885.370 420.419,891.500 418.253 C 912.842 410.709,924.005 396.883,921.150 381.529 C 919.595 373.167,915.908 368.204,908.500 364.500 C 902.891 361.696,901.783 361.504,891.500 361.559 C 878.784 361.628,866.076 364.594,853.394 370.454 C 849.247 372.370,846.019 373.614,846.221 373.219 C 851.987 361.904,854.037 353.723,854.700 339.377 C 855.500 322.070,852.593 311.729,844.839 304.301 C 837.901 297.653,830.521 296.441,822.207 300.584 M827.990 384.588 C 833.910 387.807,840.116 394.890,842.137 400.736 C 844.193 406.682,843.702 416.664,841.055 422.727 C 838.402 428.805,831.794 435.319,825.424 438.137 C 819.389 440.806,808.659 440.828,802.679 438.182 C 792.265 433.576,785.849 424.238,785.169 412.699 C 784.472 400.870,788.448 392.269,797.397 386.249 C 803.865 381.897,807.188 381.005,815.567 381.369 C 821.098 381.609,823.799 382.309,827.990 384.588 M394.845 479.250 C 405.759 501.286,409.140 515.549,409.125 539.500 C 409.112 561.002,405.000 581.003,396.931 598.810 C 387.206 620.269,366.749 642.865,342.151 659.316 C 333.843 664.872,316.000 674.586,316.000 673.552 C 316.000 673.254,318.281 670.195,321.070 666.755 C 323.858 663.315,330.325 654.200,335.441 646.500 C 362.570 605.670,378.238 569.633,386.167 529.824 C 388.065 520.294,388.429 515.172,388.461 497.500 C 388.483 485.950,388.171 474.363,387.769 471.750 C 387.367 469.137,387.430 467.000,387.908 467.000 C 388.386 467.000,391.507 472.512,394.845 479.250 " stroke="none" fill="black" fill-rule="evenodd"/></svg>